<svg xmlns="http://www.w3.org/2000/svg" viewBox="0 0 256 512"><path d="M251.1 436.3L232 422.4V396c0-6.6-5.4-12-12-12h-15.7c-14-40.7-14.7-70.2-14.5-96.2H212c6.6 0 12-5.4 12-12v-8c0-6.6-5.4-12-12-12h-22.1v-19.4c35.9-18.6 33.8-61 33.8-62 0-48-37-114.4-71.4-135 8.9-2 15.6-10 15.6-19.5 0-11-9-20-20-20H108C97 0 88 9 88 20c0 9.5 6.7 17.5 15.6 19.5-34.5 20.8-71.4 87.3-71.4 135 0 .8-2.2 43.3 33.8 62v19.4H44c-6.6 0-12 5.4-12 12v8c0 6.6 5.4 12 12 12h22.2c.2 24.8-.4 55.1-14.6 96.2H36c-6.6 0-12 5.4-12 12v26.4L4.9 436.3C1.8 438.5 0 442.1 0 446v54c0 6.6 5.4 12 12 12h232c6.6 0 12-5.4 12-12v-54c0-3.9-1.8-7.5-4.9-9.7zM64.3 174.5C64.3 130.4 108 64 128 64c6.6 0 21.7 10.7 37.6 35.8l-44.7 44.7c-2.3 2.3-2.3 6.1 0 8.5l14.1 14.1c2.3 2.3 6.1 2.3 8.5 0l37.5-37.5c6.7 16.3 10.7 32.4 10.7 44.9 0 33.2-21.2 35.5-33.8 39.1v42.3H98.1v-42.3c-12.4-3.5-33.8-5.8-33.8-39.1zM98.2 288h59.6c-.2 25.3.5 55.8 12.9 96H85.3c12.5-40.7 13.1-71.8 12.9-96zM224 480H32v-23.9l24-17.5V416h144v22.7l24 17.5z"/></svg>