<svg xmlns="http://www.w3.org/2000/svg" viewBox="0 0 384 512"><path d="M26.1 302.2l39.5 17.6C44.5 334.8 32 359.1 32 385v63h320V224c0-106-85.9-192-192-192H44.1c-11.2 0-21.8 4.4-29.7 12.3C1.7 57.1-1.5 76.6 6.6 92.7l3 5.9c-6.2 9.2-9.5 20-9.5 31.3V262c-.1 17.4 10.2 33.2 26 40.2zM32 129.9c0-6.4 2.5-12.5 7-17l9-9-12.8-25.5c-3.1-6.1 1-14.4 8.9-14.4H160c88.4 0 160 71.6 160 160v192H64v-31c0-17.7 9.7-33.9 25.2-42.3l61.5-33.2c15.5-8.4 25.2-24.6 25.2-42.3V200l-32.5 16c-6.6 3.2-11.3 9.3-12.9 16.4l-9.4 42.9c-.8 3.5-3 6.4-6.1 8.1l-19 10c-3.2 1.7-7.1 1.8-10.5.3L39.1 273c-4.3-1.9-7.1-6.2-7.1-11zM76 168c11 0 20-9 20-20s-9-20-20-20-20 9-20 20 9 20 20 20zm296 312H12c-6.6 0-12 5.4-12 12v8c0 6.6 5.4 12 12 12h360c6.6 0 12-5.4 12-12v-8c0-6.6-5.4-12-12-12z"/></svg>