<svg xmlns="http://www.w3.org/2000/svg" viewBox="0 0 256 512"><path d="M251.1 436.3L232 422.4V396c0-6.6-5.4-12-12-12h-15.9c-17-48.1-14.2-103.9-14.2-127.8v-.2H216c6.6 0 12-5.4 12-12v-8c0-6.6-5.4-12-12-12h-21.9l31.5-96.5c5.1-15.5-6.5-31.5-22.8-31.5h-49V68.8h19.8c3.3 0 6-2.7 6-6V40.4c0-3.3-2.7-6-6-6h-28.4V6c0-3.3-2.7-6-6-6h-22.4c-3.3 0-6 2.7-6 6v28.4H82.4c-3.3 0-6 2.7-6 6v22.4c0 3.3 2.7 6 6 6h19.8V96h-49c-16.3 0-27.9 15.9-22.8 31.5L61.9 224H40c-6.6 0-12 5.4-12 12v8c0 6.6 5.4 12 12 12h26.1v.2c0 22.9 2.9 79.3-14.2 127.8H36c-6.6 0-12 5.4-12 12v26.4L4.9 436.3C1.8 438.5 0 442.1 0 446v54c0 6.6 5.4 12 12 12h232c6.6 0 12-5.4 12-12v-54c0-3.9-1.8-7.5-4.9-9.7zM64.2 128h127.5l-31.4 96H95.6zm33.9 128.2v-.2H158v.2c0 26.3-2.3 78.1 12.5 127.8h-85c15.1-50.4 12.6-102.3 12.6-127.8zM224 480H32v-23.9l24-17.5V416h144v22.7l24 17.5z"/></svg>