<svg xmlns="http://www.w3.org/2000/svg" viewBox="0 0 512 512"><path d="M443.1 87.6c-.7-25.9-18.4-50-45.6-56.8-32.3-8.1-65 11.4-73.1 43.8L297.7 208l-31-161.2c-7.4-32.4-39.8-52.7-72.2-45.2-29.7 6.8-49.2 34.7-46.5 64.2-41.2-5.5-76.1 31.8-66.7 73.1L116 291.8v13.7l-14.5-13.6c-24.6-23.2-62.8-21.2-85.2 2.6-22.8 24.2-21.6 62.4 2.6 85.2l133.7 125.9c4.5 4.2 10.3 6.5 16.4 6.5h246.1c10.6 0 20-7 23-17.2l33-111.1c3-10.2 4.6-20.9 4.6-31.5V314c0-4.9.6-9.8 1.7-14.6l32.9-138.2c10-41.8-25.6-79.6-67.2-73.6zm36.1 66.2L446.3 292c-1.7 7.2-2.6 14.6-2.6 22v38.2c0 7.6-1.1 15.2-3.3 22.5L409.2 480H172.3L40.9 356.3c-11.3-10.7-11.9-28.6-1.2-39.9 10.7-11.4 28.6-11.9 39.9-1.2l54.9 51.7c5.1 4.8 13.5 1.2 13.5-5.8v-72c0-.6-.1-1.2-.2-1.8l-35.3-155.5c-8.3-36.4 46.8-49 55.1-12.5L199 257.8c.8 3.6 4.1 6.2 7.8 6.2h8.9c5.1 0 8.9-4.8 7.8-9.8L180.4 66.6C172 30.2 227.1 17.4 235.5 54l46.8 203.9c.8 3.6 4.1 6.2 7.8 6.2h13.7c3.7 0 6.9-2.5 7.8-6.1l43.9-175.5c9.1-36.3 63.9-22.6 54.8 13.7l-39.5 158c-1.3 5.1 2.6 9.9 7.8 9.9h10c3.7 0 6.9-2.5 7.8-6.1l27.9-117.1c8.6-36.5 63.6-23.5 54.9 12.9z"/></svg>