<svg xmlns="http://www.w3.org/2000/svg" viewBox="0 0 496 512"><path d="M279 256c0-17.1-13.9-31-31-31s-31 13.9-31 31 13.9 31 31 31 31-13.9 31-31zM248 8C111 8 0 119 0 256s111 248 248 248 248-111 248-248S385 8 248 8zm0 464c-119.1 0-216-96.9-216-216S128.9 40 248 40s216 96.9 216 216-96.9 216-216 216zm178.7-224.2c-4.4-4.6-10.6-7.3-17-7.3h-99.8c1.2 5 2.1 10.1 2.1 15.5 0 28.4-18.7 52.3-44.4 60.6l52.7 84.3c3.4 5.4 9 9.2 15.2 10.5 1.5.3 3.1.5 4.7.5 4.7 0 9.3-1.4 13.2-4.1 47.9-33.2 76.9-85.3 79.7-142.9.3-6.3-2-12.5-6.4-17.1zm-84.2 128.3L312 327.3c15.9-14.2 26.8-33.4 30.5-54.8h57.8c-4.3 40.9-24.9 77.8-57.8 103.6zM184 256c0-5.4.9-10.5 2.1-15.5H86.3c-6.4 0-12.6 2.7-17 7.3s-6.7 10.8-6.4 17.1c2.8 57.5 31.8 109.6 79.7 142.9 3.9 2.7 8.5 4.1 13.2 4.1 1.5 0 3.1-.2 4.7-.5 6.3-1.3 11.8-5.1 15.2-10.5l52.7-84.3c-25.7-8.3-44.4-32.1-44.4-60.6zm-30.5 120.1c-32.8-25.7-53.5-62.7-57.9-103.5h57.8c3.7 21.4 14.6 40.6 30.5 54.8l-30.4 48.7zM202 211.6c11.6-12.1 27.9-19.6 46-19.6s34.4 7.6 46 19.7l52.5-84.1c3.4-5.4 4.5-12.1 2.9-18.2-1.5-6.1-5.6-11.4-11-14.5C310.6 79 279.3 71.2 248 71.2c-31.3 0-62.6 7.9-90.5 23.7-5.4 3.1-9.4 8.3-10.9 14.4-1.6 6.2-.5 12.8 2.8 18.2l52.6 84.1zm46-108.4c23.1 0 45.9 5.2 66.5 15.2L284.1 167c-11.3-4.6-23.5-7-36.1-7-12.6 0-24.8 2.4-36.1 7l-30.4-48.6c20.5-10 43.4-15.2 66.5-15.2z"/></svg>