<svg xmlns="http://www.w3.org/2000/svg" viewBox="0 0 512 512"><path d="M431.8 194.1l70.8-70.8c12.5-12.5 12.5-32.8 0-45.3L433.9 9.4C427.7 3.1 419.5 0 411.3 0s-16.4 3.1-22.6 9.4l-70.8 70.8-70.8-70.9C240.8 3.1 232.7 0 224.5 0c-8.2 0-16.3 3.1-22.5 9.3L105.3 106c-12.4 12.4-12.4 32.6 0 45.1l45.3 45.3c-13.9-2.8-28.1-4.3-42.3-4.3-34.5 0-69.1 8.4-100.3 25.2-9.4 5.1-10.7 18.2-3.1 25.8l120.7 120.7-37.9 37.9c-2.5-.7-5-1.6-7.8-1.6-17.7 0-32 14.3-32 32s14.3 32 32 32 32-14.3 32-32c0-2.8-.9-5.3-1.6-7.8l37.8-37.8L269 507.1c3.3 3.3 7.7 4.9 11.9 4.9 5.6 0 11-2.7 13.9-8.1 23.8-44.3 30.1-95.1 20.1-143.3l46 46c6.2 6.2 14.4 9.3 22.5 9.3 8.2 0 16.3-3.1 22.5-9.3l96.7-96.7c12.4-12.4 12.4-32.6 0-45.1l-70.8-70.7zM411.3 32l68.7 68.7-192.1 192.1c-8.5-13.7-18-26.9-29.9-38.8-11.8-11.8-24.8-21.8-38.5-30.2L411.3 32zm-186.8.1l70.8 70.7-96.6 96.6-70.7-70.8 96.5-96.5zm51.4 436.6L43.3 236.1c20.6-8 42.7-12.1 65-12.1 48 0 93.1 18.7 127 52.6 50.4 50.4 65.8 126.7 40.6 192.1zM383.6 384l-70.9-70.8 96.6-96.6 70.8 70.7-96.5 96.7z"/></svg>