<svg xmlns="http://www.w3.org/2000/svg" viewBox="0 0 640 512"><path d="M608 352h-64V112A112.14 112.14 0 0 0 432 0H80A80.09 80.09 0 0 0 0 80v80a32 32 0 0 0 32 32h96v224c0 51.11 40.25 92.62 90.66 95.46v.54h312A109.47 109.47 0 0 0 640 402.67V384a32 32 0 0 0-32-32zM128 160H32V80a48 48 0 0 1 96 0zm160 256a64 64 0 0 1-128 0V80a79.61 79.61 0 0 0-16-48h288a80.09 80.09 0 0 1 80 80v240H320a32 32 0 0 0-32 32zm320-13.33A77.42 77.42 0 0 1 530.66 480H295a95.26 95.26 0 0 0 25-64v-32h288zm-269.22-78.15a20 20 0 0 0 17.22-9.8l27.61-46.16h56.3a20.15 20.15 0 0 0 17.5-10.15 19.68 19.68 0 0 0-.22-20L429.39 192l27.7-46.32a20 20 0 0 0-17.18-30.26h-56.36l-27.71-46.26c-7.31-12.19-26.93-12.08-34.25.17L294 115.44h-56.3a20.14 20.14 0 0 0-17.5 10.15 19.68 19.68 0 0 0 .22 20L248.23 192l-27.7 46.32a20 20 0 0 0 17.19 30.26h56.36l27.7 46.28c3.6 6.05 8.56 9.53 17 9.66zm.06-27.9L322 268.56h33.59zm94-52.06H398l17.45-29.17zm0-105.12l-17.44 29.21-17.48-29.21zm-94.1-52.06l16.8 28.06H322zm-94 52.06h34.91l-17.45 29.17zm0 105.12l17.47-29.21 17.49 29.21zM276.2 192l31.44-52.54H370L401.42 192 370 244.56h-62.32z"/></svg>