<svg xmlns="http://www.w3.org/2000/svg" viewBox="0 0 512 512"><path d="M505.09 19.34A16.08 16.08 0 0 0 492.73 7c-32.61-7-58.13-7-83.56-7C305.44 0 243 55.1 196.28 128H94.87A48 48 0 0 0 52 154.49l-49.42 98.8A24 24 0 0 0 24.07 288h92.6l-10.59 21.42a31.75 31.75 0 0 0 6.15 36.63L166 399.77c15.55 15.54 33.82 7.53 36.64 6.14L224 395.33V488a24 24 0 0 0 34.7 21.5l98.7-49.4a47.91 47.91 0 0 0 26.5-42.9V315.71C456.61 268.93 512 206.25 512 103c.08-25.53.08-51-6.91-83.66zM358.57 275c-36.94 18.48-121.12 60.14-166.79 82.73l-37.5-37.49c22.59-45.69 64.25-130 82.7-166.9C284.38 79.53 336 48 409.17 48c18 0 34.28 0 52.56 2.34 2.38 18.73 2.32 35.29 2.25 52.65.02 72.78-31.56 124.33-105.41 172.01zM368 104a40 40 0 1 0 40 40 40 40 0 0 0-40-40z"/></svg>