<svg xmlns="http://www.w3.org/2000/svg" viewBox="0 0 512 512"><path d="M431.8 194.1l70.8-70.8c12.5-12.5 12.5-32.8 0-45.3L433.9 9.4C427.7 3.1 419.5 0 411.3 0c-8.2 0-16.4 3.1-22.6 9.4l-70.8 70.8-70.8-70.9C240.8 3.1 232.7 0 224.5 0c-8.2 0-16.3 3.1-22.5 9.3L105.3 106c-12.4 12.4-12.4 32.6 0 45.1l45.3 45.3c-13.9-2.8-28.1-4.3-42.3-4.3-34.5 0-69.1 8.4-100.3 25.2-9.4 5.1-10.7 18.2-3.1 25.8l120.7 120.7-21.9 21.9c-2.6-.7-5-1.6-7.8-1.6-17.7 0-32 14.3-32 32s14.3 32 32 32 32-14.3 32-32c0-2.8-.9-5.2-1.6-7.8l21.9-21.9L269 507.1c3.3 3.3 7.7 4.9 11.9 4.9 5.6 0 11-2.7 13.9-8.1 23.8-44.3 30.1-95.1 20.1-143.3l46 46c6.2 6.2 14.4 9.3 22.5 9.3s16.3-3.1 22.5-9.3l96.7-96.7c12.4-12.4 12.4-32.6 0-45.1l-70.8-70.7zM411.3 54.6l46.1 46.1-178.3 178.2c-6.4-8.7-13.3-17.1-21.1-24.9-7.9-7.9-16.3-14.7-25-21.1L411.3 54.6zm-186.8.1l59.4 59.4-73.8 73.8-59.4-59.4 73.8-73.8zm43.7 383.7L73.6 243.7c11.4-2.5 23.1-3.7 34.8-3.7 43.7 0 84.8 17 115.7 47.9 39.7 39.8 55.5 97.1 44.1 150.5zm115.3-77.1l-59.4-59.4 73.8-73.8 59.4 59.4-73.8 73.8z"/></svg>