<svg xmlns="http://www.w3.org/2000/svg" viewBox="0 0 640 512"><path d="M608 336h-64V88a88.1 88.1 0 0 0-88-88H80A80.09 80.09 0 0 0 0 80v64a32 32 0 0 0 32 32h80v227.44c0 55.44 41.69 105.46 98.66 108.3v.26h312A117.46 117.46 0 0 0 640 394.67V368a32 32 0 0 0-32-32zM112 128H48V80a32 32 0 0 1 64 0zm160 240v40c0 72-112 78.07-112-4.56V80a79.27 79.27 0 0 0-6.69-32H456a40 40 0 0 1 40 40v248H304a32 32 0 0 0-32 32zm320 26.67A69.4 69.4 0 0 1 522.66 464H303.11A103.79 103.79 0 0 0 320 408v-24h272zm-256-70.15a20 20 0 0 0 17.22-9.8l27.6-46.16h56.3a20.14 20.14 0 0 0 17.5-10.15 19.68 19.68 0 0 0-.21-20L426.58 192l27.7-46.32a20 20 0 0 0-17.19-30.26h-56.35L353 69.16a19.64 19.64 0 0 0-16.94-9.68H336a20 20 0 0 0-17.22 9.8l-27.6 46.16h-56.3a20.14 20.14 0 0 0-17.5 10.15 19.68 19.68 0 0 0 .21 20L245.42 192l-27.7 46.32a20 20 0 0 0 17.19 30.26h56.35L319 314.84a19.91 19.91 0 0 0 17 9.68zm.06-27.9l-16.8-28.06h33.59zm94-52.06h-34.91l17.45-29.17zm0-105.12l-17.47 29.21-17.49-29.21zM336 87.38l16.8 28.06h-33.62zm-94 52.06h34.91l-17.51 29.17zm0 105.12l17.47-29.21 17.49 29.21zM273.39 192l31.43-52.54h62.31L398.61 192l-31.43 52.54h-62.31z"/></svg>