<svg xmlns="http://www.w3.org/2000/svg" viewBox="0 0 256 512"><path d="M250.1 425.5L232 414.8V388c0-6.6-5.4-12-12-12h-15c-11.5-39.6-11.1-83-10.9-110.3V264H220c6.6 0 12-5.4 12-12v-24c0-6.6-5.4-12-12-12h-18.6l29.6-88.4c5.2-15.5-6.4-31.6-22.8-31.6h-54.5V68.8h19.8c3.3 0 6-2.7 6-6V40.4c0-3.3-2.7-6-6-6h-28.4V6c0-3.3-2.7-6-6-6h-22.4c-3.3 0-6 2.7-6 6v28.4H82.4c-3.3 0-6 2.7-6 6v22.4c0 3.3 2.7 6 6 6h19.8V96H47.7c-16.4 0-28 16.1-22.8 31.6L54.6 216H36c-6.6 0-12 5.4-12 12v24c0 6.6 5.4 12 12 12h25.9v1.8c.3 25.3.7 69.9-10.9 110.2H36c-6.6 0-12 5.4-12 12v26.8L5.9 425.5c-3.7 2.2-5.9 6.1-5.9 10.3V500c0 6.6 5.4 12 12 12h232c6.6 0 12-5.4 12-12v-64.2c0-4.2-2.2-8.2-5.9-10.3zM174.9 144l-24.2 72h-45.5L81 144zm-65 121.3V264h36.3v1.4c-.2 27.1-.5 68.7 9.3 110.6h-54.9c10-42.8 9.6-85.4 9.3-110.7zM208 464H48v-7.7l24-14.2V424h112v18.1l24 14.2z"/></svg>