<svg xmlns="http://www.w3.org/2000/svg" viewBox="0 0 512 512"><path d="M502.6 54.6L457.4 9.4c-12.5-12.5-32.8-12.5-45.3 0l-67.9 67.9c-12.5 12.5-12.5 32.8 0 45.3l5.7 5.7-28.9 28.8c-25.6-18.9-54.8-29.1-82.4-29.1-26.6 0-51.6 9-70.1 27.6-10.4 10.4-17.7 22.8-22.1 36.5-6.5 20.3-25.3 35.6-46 37.6-25.9 2.4-49.9 12.5-68.3 31-49.6 49.6-40.8 139 19.7 199.5 34.2 34.2 77.5 51.9 117.7 51.9 31 0 60.2-10.5 81.8-32.1 18.5-18.5 28.6-42.4 31-68.3 1.9-20.6 17.3-39.4 37.6-46 13.6-4.4 26.1-11.7 36.5-22.1 37.8-37.8 35.9-102.3-1.3-152.6l28.7-28.7 5.7 5.7c12.5 12.5 32.8 12.5 45.2 0l67.9-67.9c12.5-12.7 12.5-33 0-45.5zm-167 211.6c1 10.3.7 29.5-13.1 43.3-4.7 4.7-10.5 8.2-17.2 10.3-38.5 12.4-66.9 47.4-70.6 87.1-1.5 15.9-7.3 29-17.2 38.9-14.9 15-34.3 18.1-47.8 18.1-29.2 0-59.8-13.8-83.8-37.8-41-41-50.1-101.3-19.7-131.6 9.9-9.9 23-15.7 38.9-17.2 39.7-3.8 74.7-32.1 87.1-70.7 2.2-6.8 5.7-12.6 10.3-17.2 11.2-11.2 25.8-13.5 36.1-13.5 15.9 0 32.7 5.8 48 15.5l-66.3 66.3c-3.9-1-8-1.8-12.3-1.8-26.5 0-48 21.5-48 48s21.5 48 48 48 48-21.5 48-48c0-4.3-.7-8.3-1.8-12.3l66.3-66.3c8.3 13.1 13.8 27.1 15.1 40.9zm76.5-143.7l-22.6-22.6 45.2-45.2 22.6 22.6-45.2 45.2z"/></svg>