<svg xmlns="http://www.w3.org/2000/svg" viewBox="0 0 496 512"><path d="M205.3 188.4c12.4-7.7 27-12.4 42.7-12.4s30.3 4.6 42.7 12.4l71.5-113.3c10.2-16.2 4.2-38.2-13.5-45.9C317.9 15.6 283.9 8 248 8s-69.9 7.6-100.7 21.1c-17.6 7.7-23.7 29.7-13.5 45.9l71.5 113.4zM248 56c21.5 0 42.5 3.4 62.7 10l-40.4 64c-7.4-1.3-14.8-2-22.4-2-7.5 0-15 .7-22.4 2l-40.4-64c20.4-6.6 41.4-10 62.9-10zm215.4 200H328.8c0 28.6-15.3 53.5-38.1 67.6l71.4 113.2c6.2 9.8 17 15.3 27.8 15.3 7.1 0 14.2-2.3 20.1-7.3 45.2-38 76.7-91.7 85.7-152.5 2.8-19.2-12.7-36.3-32.3-36.3zm-70.6 139l-40.3-63.9c6.2-8.4 11.3-17.5 15.3-27.1H444c-8.5 34.2-26.2 65.6-51.2 91zM248 208c-26.5 0-48 21.5-48 48s21.5 48 48 48 48-21.5 48-48-21.5-48-48-48zm-80.8 48H32.6C13 256-2.5 273.1.3 292.3c9 60.9 40.5 114.5 85.7 152.5 5.9 4.9 13 7.3 20.1 7.3 10.8 0 21.6-5.4 27.8-15.3l71.4-113.2c-22.8-14.1-38.1-39-38.1-67.6zm-64 139c-25-25.4-42.6-56.8-51.2-91h76.2c3.9 9.6 9.1 18.7 15.3 27.1L103.2 395z"/></svg>