<svg xmlns="http://www.w3.org/2000/svg" viewBox="0 0 496 512"><path d="M248 192c-35.3 0-64 28.7-64 64s28.7 64 64 64 64-28.7 64-64-28.7-64-64-64zm0 96c-17.6 0-32-14.4-32-32s14.4-32 32-32 32 14.4 32 32-14.4 32-32 32zm-51.2-113.2c14.9-9.2 32.4-14.8 51.2-14.8s36.3 5.6 51.2 14.8L362.1 75c10.2-16.2 4.2-38.2-13.5-45.9C317.9 15.6 283.9 8 248 8s-69.9 7.6-100.7 21.1c-17.6 7.7-23.7 29.7-13.5 45.9l63 99.8zM248 40c30.4 0 59.8 6.2 86.8 18.1l-47.9 76c-12.6-4-25.7-6.1-38.8-6.1-13.3 0-26.4 2.1-39 6.1l-48.6-75.8C188.2 46.2 217.6 40 248 40zm215.4 216H344.9c0 34.3-18.3 64.2-45.7 81.2l62.8 99.6c6.2 9.8 17 15.3 27.8 15.3 7.1 0 14.2-2.3 20.1-7.3 45.2-38 76.7-91.7 85.7-152.5 2.9-19.2-12.6-36.3-32.2-36.3zm-73.9 163.8L341.6 344c15.2-15.7 26-35 31.5-56h90.3l.3-.4c-7.6 51.6-34.2 98.7-74.2 132.2zM151.1 256H32.6C13 256-2.5 273.1.3 292.3c9 60.9 40.5 114.5 85.7 152.5 5.9 4.9 13 7.3 20.1 7.3 10.8 0 21.6-5.4 27.8-15.3l62.8-99.6c-27.3-17-45.6-46.9-45.6-81.2zM107 420.4C66.5 386.3 40 339.2 32.6 288h90.3c5.5 21.1 16.4 40.3 31.6 56.1L107 420.4z"/></svg>