<svg xmlns="http://www.w3.org/2000/svg" viewBox="0 0 320 512"><path d="M78.9 274.8h28.4c0 22.9 2.1 62.1-17.7 106.5h140.9c-19.4-43.4-17.8-81.4-17.7-106.5h28.4c3.3 0 6-2.7 6-6v-31.9c0-3.3-2.7-6-6-6H195c30.7-13.5 52.1-44.1 52.1-79.8 0-48.5-39.7-87.8-88.4-87.1-48.1.7-86.8 40.8-85.8 88.8.7 34.9 21.9 64.8 52.1 78H78.9c-3.3 0-6 2.7-6 6v31.9c0 3.4 2.7 6.1 6 6.1zm227.5 175.8l-28.2-16.9v-33.9c0-3.3-2.7-6-6-6H47.8c-3.3 0-6 2.7-6 6v33.9l-28.2 16.9c-1.8 1.1-2.9 3-2.9 5.1V506c0 3.3 2.7 6 6 6h286.7c3.3 0 6-2.7 6-6v-50.2c-.1-2.1-1.2-4.1-3-5.2z"/></svg>