<svg xmlns="http://www.w3.org/2000/svg" viewBox="0 0 384 512"><path d="M57.1 183.7l38.7 26.4c.1 28.2-.3 99.4-18.5 178.1h229.5c-18.2-78.5-18.6-149.8-18.5-178.2l38.7-26.4c1.6-1.1 2.6-3 2.6-5V70c0-3.3-2.7-6-6-6h-43c-3.3 0-6 2.7-6 6v49h-35.4V70c0-3.3-2.7-6-6-6h-82.3c-3.3 0-6 2.7-6 6v49h-35.4V70c0-3.3-2.7-6-6-6h-43c-3.3 0-6 2.7-6 6v108.7c-.1 2 .9 3.9 2.6 5zm111.3 80.7c0-13 10.6-23.6 23.6-23.6s23.6 10.6 23.6 23.6v47.2h-47.2zm186.3 182.4l-21.3-16.5V406c0-3.3-2.7-6-6-6h-271c-3.3 0-6 2.7-6 6v24.2l-21.3 16.5c-1.5 1.1-2.3 2.9-2.3 4.7V506c0 3.3 2.7 6 6 6h318.1c3.3 0 6-2.7 6-6v-54.5c.2-1.9-.7-3.6-2.2-4.7z"/></svg>