<svg xmlns="http://www.w3.org/2000/svg" viewBox="0 0 320 512"><path d="M75.4 171.9c0 30.5 13.1 43.7 33.3 49.4v15.8h102.6v-15.8c20.3-5.7 33.3-18.9 33.3-49.4 0-20.3-7.6-45.3-19-68.2l-53.8 47.8c-2.5 2.2-6.3 2-8.5-.5l-5.8-6.6c-2.2-2.5-2-6.3.5-8.5L215.2 85c-10.3-16.6-22.3-30.8-34.1-39.3 9.5-3.1 16.3-12 16.3-22.5-.1-13-11-23.4-24-23.4h-27c-13 0-24 10.4-24 23.4 0 10.5 6.8 19.5 16.4 22.5-31 22.4-63.4 84.2-63.4 126.2zm215 285.1l-24.9-14.9v-29.6c0-3.3-2.7-6-6-6H60.4c-3.3 0-6 2.7-6 6v29.6L29.6 457c-1.8 1.1-2.9 3-2.9 5.1V506c0 3.3 2.7 6 6 6h254.7c3.3 0 6-2.7 6-6v-43.9c0-2.1-1.1-4-3-5.1zm-209-170.7h27.3c0 22.4 2.6 65.5-17.4 109.9h137.4c-19.6-43.4-17.4-85.3-17.4-109.9h27.3c3.3 0 6-2.7 6-6v-27c0-3.3-2.7-6-6-6H81.4c-3.3 0-6 2.7-6 6v27c0 3.3 2.7 6 6 6z"/></svg>