<svg xmlns="http://www.w3.org/2000/svg" viewBox="0 0 320 512"><path d="M289.7 453.9L264.8 438v-31.7c0-3.3-2.7-6-6-6H61.2c-3.3 0-6 2.7-6 6V438l-24.8 15.9c-1.7 1.1-2.8 3-2.8 5.1v47c0 3.3 2.7 6 6 6h252.8c3.3 0 6-2.7 6-6v-47.1c0-2-1-3.9-2.7-5zM98.1 189.8h123.7l44.4-107.5c1.2-2.9 0-6.2-2.7-7.6l-15.4-8.1c-2.9-1.5-6.4-.5-8 2.4-3.7 6.6-9.7 15.5-18.5 15.5-12.1 0-13.1-8.2-13.5-23.8-.1-3.2-2.8-5.8-6-5.8H186c-2.6 0-4.8 1.7-5.7 4.1-3.9 11.1-11.1 17-20.3 17s-16.5-5.9-20.3-17c-.9-2.4-3.1-4.1-5.7-4.1h-16.1c-3.2 0-5.9 2.6-6 5.8-.5 15.6-1.4 23.8-13.5 23.8-8.6 0-14.1-8.1-18.6-15.6-1.6-2.7-5.1-3.7-7.9-2.2l-15.3 8.1c-2.7 1.4-3.9 4.7-2.7 7.6zm61.7-141.9c13.2 0 24-10.7 24-24s-10.7-24-24-24-24 10.7-24 24 10.8 24 24 24zm80.4 187c3.3 0 6-2.7 6-6v-24.3c0-3.3-2.7-6-6-6H79.8c-3.3 0-6 2.7-6 6v24.3c0 3.3 2.7 6 6 6h29.3c.2 36 .2 99.7-19.2 156.6h140c-19.1-56.2-19.3-118.8-19.1-156.6z"/></svg>