<svg xmlns="http://www.w3.org/2000/svg" viewBox="0 0 512 512"><path d="M507.1 436.4l-19.1-14V396c0-6.6-5.4-12-12-12h-3.8c-9.5-41-10.6-79.9-10.7-99.6l30-24.4c2.8-2.3 4.4-5.7 4.4-9.3V184c0-13.3-10.7-24-24-24H296c-13.3 0-24 10.7-24 24v66.7c0 3.6 1.6 7 4.4 9.3l30 24.4c-.1 19.6-1.2 58.5-10.7 99.6H292c-6.6 0-12 5.4-12 12v26.4l-19.1 14c-3.1 2.3-4.9 5.9-4.9 9.7v-.1c0-3.8-1.8-7.4-4.9-9.7L232 422.4V396c0-6.6-5.4-12-12-12h-15.9c-17-48.1-14.2-103.9-14.2-127.8v-.2H216c6.6 0 12-5.4 12-12v-8c0-6.6-5.4-12-12-12h-21.9l31.5-96.5c5.1-15.5-6.5-31.5-22.8-31.5h-49V68.8h19.8c3.3 0 6-2.7 6-6V40.4c0-3.3-2.7-6-6-6h-28.4V6c0-3.3-2.7-6-6-6h-22.4c-3.3 0-6 2.7-6 6v28.4H82.4c-3.3 0-6 2.7-6 6v22.4c0 3.3 2.7 6 6 6h19.8V96h-49c-16.3 0-27.9 15.9-22.8 31.5L61.9 224H40c-6.6 0-12 5.4-12 12v8c0 6.6 5.4 12 12 12h26.1v.2c0 22.9 2.9 79.3-14.2 127.8H36c-6.6 0-12 5.4-12 12v26.4L4.9 436.3C1.8 438.5 0 442.1 0 446v54c0 6.6 5.4 12 12 12h232c6.6 0 12-5.4 12-12 0 6.6 5.4 12 12 12h232c6.6 0 12-5.4 12-12v-53.9c0-3.8-1.8-7.4-4.9-9.7zM64.2 128h127.5l-31.4 96H95.6zm33.9 128.2v-.2H158v.2c0 26.3-2.3 78.1 12.5 127.8h-85c15.1-50.4 12.6-102.3 12.6-127.8zM224 480H32v-23.9l24-17.5V416h144v22.7l24 17.5zm80-238.8V192h24v32h32v-32h48v32h32v-32h24v49.2l-34.4 28v7.6c-.1 15.6-.2 59.2 9.9 107.3h-111c10.1-48.1 10-91.7 9.9-107.3v-7.6zM480 480H288v-23.9l24-17.5V416h144v22.7l24 17.5zm-77.5-164.3c0-9.2-7.4-16.6-16.6-16.6h-3.7c-9.2 0-16.6 7.4-16.6 16.6v38.8h36.9z"/></svg>