<svg xmlns="http://www.w3.org/2000/svg" viewBox="0 0 256 512"><path d="M251.1 436.3L232 422.4V396c0-6.6-5.4-12-12-12h-15.5C188.1 333.3 190 278.6 190 240h27c6.6 0 12-5.4 12-12v-8c0-6.6-5.4-12-12-12h-20l49.9-122.7c1.2-2.9 0-6.1-2.7-7.6L225.8 68c-2.9-1.5-6.5-.5-8.1 2.4-4.1 7.4-10.8 17.9-20.9 17.9-13.7 0-14.6-9.4-15.1-27.4-.1-3.2-2.7-5.8-6-5.8h-19.1c-2.6 0-4.9 1.7-5.7 4.1-4.3 12.7-12.4 19.6-22.8 19.6s-18.6-6.8-22.8-19.6c-.8-2.5-3.1-4.1-5.7-4.1H80.3c-3.2 0-5.9 2.6-6 5.8-.5 18-1.5 27.4-15.1 27.4-9.8 0-16.1-9.6-21.1-18.1-1.6-2.8-5.1-3.7-8-2.2l-18.3 9.7c-2.7 1.4-3.9 4.7-2.7 7.6L59 208H39c-6.6 0-12 5.4-12 12v8c0 6.6 5.4 12 12 12h27.1c0 27 3 89.8-14.5 144H36c-6.6 0-12 5.4-12 12v26.4L4.9 436.3C1.8 438.5 0 442.1 0 446v54c0 6.6 5.4 12 12 12h232c6.6 0 12-5.4 12-12v-54c0-3.9-1.8-7.5-4.9-9.7zm-193.2-316c12 .3 28.8-3.3 39.4-19.3 23.8 16.8 49.2 8.6 61.4 0 9.4 14.2 24.6 19.7 39.4 19.3L162.5 208h-69zM98.1 240H158c0 30.4-2.5 88.7 13.1 144H85c15.8-56.2 13.1-115.2 13.1-144zM224 480H32v-23.9l24-17.5V416h144v22.7l24 17.5zM127.8 56c15.5 0 28-12.5 28-28s-12.5-28-28-28-28 12.5-28 28 12.6 28 28 28z"/></svg>