<svg xmlns="http://www.w3.org/2000/svg" viewBox="0 0 608 512"><path d="M330.3 96h-94.2c-6.6 0-12 5.4-12 12v6.1c0 6.6 5.4 12 12 12h29.4v114.2h-179V126.1h29.4c6.6 0 12-5.4 12-12V108c0-6.6-5.4-12-12-12H21.7c-6.6 0-12 5.4-12 12v6.1c0 6.6 5.4 12 12 12h29.4v259.8H21.7c-6.6 0-12 5.4-12 12v6.1c0 6.6 5.4 12 12 12h94.2c6.6 0 12-5.4 12-12v-6.1c0-6.6-5.4-12-12-12H86.5V271.3h178.9V386H236c-6.6 0-12 5.4-12 12v6.1c0 6.6 5.4 12 12 12h94.2c6.6 0 12-5.4 12-12V398c0-6.6-5.4-12-12-12h-29.4V126.1h29.4c6.6 0 12-5.4 12-12V108c.1-6.6-5.3-12-11.9-12zm173.4 129.2l88.9-102.5c1.9-2.2 2.9-5 2.9-7.9V108c0-6.6-5.4-12-12-12H419.6c-6.6 0-12 5.4-12 12v7.7c0 6.6 5.4 12 12 12h108.2c9.7 0 16.7-.4 21-.8-3.2 3.1-8.3 8.4-13.6 14.6L460.4 229c-2.9 3.4-3.7 8.2-2 12.4l2.7 6.5c1.9 4.5 6.2 7.4 11.1 7.4H487c41.6 0 77.2 23.2 77.2 65.1 0 38.6-32.9 66-70.1 66-26.2 0-52.9-12.3-71.7-29.2-5.1-4.6-13.1-3.9-17.4 1.5l-6.3 8c-3.9 4.9-3.4 12.1 1.3 16.3 22.2 20.3 57.8 36.9 94.5 36.9 59.1 0 105.4-44.1 105.4-100.5.1-58-44-89.7-96.2-94.2z"/></svg>