<svg xmlns="http://www.w3.org/2000/svg" viewBox="0 0 384 512"><path d="M272 192H112c-26.5 0-48 21.5-48 48v160c0 26.5 21.5 48 48 48h160c26.5 0 48-21.5 48-48V240c0-26.5-21.5-48-48-48zm-104 32h48v40h-48v-40zm-72 16c0-8.8 7.2-16 16-16h24v40H96v-24zm40 176h-24c-8.8 0-16-7.2-16-16v-24h40v40zm80 0h-48v-40h48v40zm72-16c0 8.8-7.2 16-16 16h-24v-40h40v24zm0-56H96v-48h192v48zm0-80h-40v-40h24c8.8 0 16 7.2 16 16v24zM320 0H128L0 128v320c0 35.3 28.7 64 64 64h256c35.3 0 64-28.7 64-64V64c0-35.3-28.7-64-64-64zm32 448c0 17.6-14.4 32-32 32H64c-17.6 0-32-14.4-32-32V141.3L141.3 32H320c17.6 0 32 14.4 32 32v384z"/></svg>