<svg xmlns="http://www.w3.org/2000/svg" viewBox="0 0 448 512"><path d="M416.2 207.9l-60.4-168c-1.7-4.8-6.2-7.9-11.3-7.9h-16.9c-5.1 0-9.6 3.2-11.3 7.9l-60.4 168c-2.8 7.8 3 16.1 11.3 16.1h11.3c5.1 0 9.7-3.2 11.3-8.1l15.3-44.3h61.5L382 216c1.7 4.8 6.2 8 11.3 8h11.6c8.3 0 14.1-8.2 11.3-16.1zm-101-67.3l18.1-51.2c.9-2.6 1.8-5.6 2.7-8.7.9 3.1 1.8 6.2 2.6 8.8l17.8 51.2h-41.2zM197.4 368c-4.7-4.7-12.3-4.7-17 0L129 419.9V44c0-6.6-5.4-12-12-12h-10c-6.6 0-12 5.4-12 12v375.9L43.6 368c-4.7-4.7-12.3-4.7-17 0l-7.1 7.1c-4.7 4.7-4.7 12.3 0 17l84 84.5c4.7 4.7 12.3 4.7 17 0l84-84.5c4.7-4.7 4.7-12.3 0-17zm198.4 79.9h-84.1c4.8-6-1.2 2.3 92.9-133.6 1.4-2 2.1-4.4 2.1-6.8V300c0-6.6-5.4-12-12-12H280.9c-6.6 0-12 5.4-12 12v8.1c0 6.6 5.4 12 12 12h78.2c-3 3.8 4.6-7.1-92.8 133.3-1.4 2-2.1 4.4-2.1 6.8v7.8c0 6.6 5.4 12 12 12h119.5c6.6 0 12-5.4 12-12v-8.1c.1-6.6-5.3-12-11.9-12z"/></svg>