<svg xmlns="http://www.w3.org/2000/svg" viewBox="0 0 448 512"><path d="M319.4 320L224 415.39 128.6 320C57.1 323.1 0 381.6 0 453.79A58.21 58.21 0 0 0 58.21 512h331.58A58.21 58.21 0 0 0 448 453.79C448 381.6 390.9 323.1 319.4 320zM208 480H58.21A26.24 26.24 0 0 1 32 453.79a101.85 101.85 0 0 1 84.74-100.4L208 444.66zm181.78 0H240v-35.36l91.25-91.25A101.85 101.85 0 0 1 416 453.79 26.24 26.24 0 0 1 389.79 480zm-332-192H143a118.62 118.62 0 0 0 162.08 0h85.19a16 16 0 0 0 14.28-23.18c-15.21-29.82-31.25-62.16-42.13-95.45C354.81 146.15 352 121.62 352 97.2v-27a32 32 0 0 0-20.76-29.95L224 0 116.76 40.22A32 32 0 0 0 96 70.17v27c0 24.43-2.78 49-10.37 72.19C74.74 202.67 58.71 235 43.5 264.82A16 16 0 0 0 57.78 288zM224 288a88.1 88.1 0 0 1-88-88 82.48 82.48 0 0 1 3.89-24h168.23a82.48 82.48 0 0 1 3.88 24 88.1 88.1 0 0 1-88 88zm119.13-79.34c6.58 16.17 13.62 32.06 21.13 47.34h-34.72a118.44 118.44 0 0 0 13.6-47.34zM128 70.18l96-36 96 36V144H128zm-23.12 138.48a118.6 118.6 0 0 0 13.6 47.34H83.75c7.52-15.28 14.55-31.17 21.13-47.34zm155.8-126h-23.33V59.33A3.34 3.34 0 0 0 234 56h-20a3.33 3.33 0 0 0-3.33 3.33v23.34h-23.33A3.33 3.33 0 0 0 184 86v20a3.33 3.33 0 0 0 3.33 3.33h23.34v23.34A3.33 3.33 0 0 0 214 136h20a3.34 3.34 0 0 0 3.34-3.33v-23.34h23.33A3.33 3.33 0 0 0 264 106V86a3.33 3.33 0 0 0-3.32-3.33z"/></svg>