<svg xmlns="http://www.w3.org/2000/svg" viewBox="0 0 496 512"><path d="M181.9 256h-81.7c-9.5 0-17.5 8-16.5 17.4 4.8 45 27.8 84.4 61.5 111.3 7.9 6.3 19.5 4.7 24.8-3.9l43.1-68.9c-18.6-11.7-31.2-32.3-31.2-55.9zm101-55.9l43.2-69.1c5-8 2.5-19-5.9-23.2-21.8-10.8-46.2-17-72.1-17s-50.3 6.3-72.1 17c-8.5 4.2-11 15.2-5.9 23.2l43.2 69.1c10.2-6.4 22.1-10.2 34.9-10.2s24.6 3.9 34.7 10.2zM395.7 256H314c0 23.6-12.5 44.2-31.2 55.9l43.1 68.9c5.3 8.6 16.9 10.2 24.8 3.9 33.6-26.8 56.7-66.3 61.5-111.3 1-9.4-7-17.4-16.5-17.4zM248 223c-18.2 0-33 14.8-33 33s14.8 33 33 33 33-14.8 33-33-14.8-33-33-33zm0-215C111 8 0 119 0 256s111 248 248 248 248-111 248-248S385 8 248 8zm0 448c-110.3 0-200-89.7-200-200S137.7 56 248 56s200 89.7 200 200-89.7 200-200 200z"/></svg>