<svg xmlns="http://www.w3.org/2000/svg" viewBox="0 0 448 512"><path d="M384 0H128L0 128v320c0 35.3 28.7 64 64 64h320c35.3 0 64-28.7 64-64V64c0-35.3-28.7-64-64-64zm16 448c0 8.8-7.2 16-16 16H64c-8.8 0-16-7.2-16-16V147.9L147.9 48H384c8.8 0 16 7.2 16 16v384zM96 384c0 17.7 14.3 32 32 32h32v-64H96v32zm160-224h-64v64h64v-64zm-64 256h64v-64h-64v64zm-32-256h-32c-17.7 0-32 14.3-32 32v32h64v-64zm128 256h32c17.7 0 32-14.3 32-32v-32h-64v64zm32-256h-32v64h64v-32c0-17.7-14.3-32-32-32zM96 320h256v-64H96v64z"/></svg>