<svg xmlns="http://www.w3.org/2000/svg" viewBox="0 0 448 512"><path d="M422.4 208.1l-57.1-168c-1.7-4.9-6.2-8.1-11.4-8.1H318c-5.1 0-9.7 3.3-11.4 8.1l-57.1 168c-2.6 7.8 3.1 15.9 11.4 15.9H290c5.4 0 10.1-3.5 11.5-8.7l8.6-29.9h51.4l8.8 30a12 12 0 0 0 11.5 8.6H411c8.3 0 14.1-8.1 11.4-15.9zm-99.3-66.7l9-30.7c1.3-4.4 2.7-10 3.9-15.2 1.2 5.2 2.6 10.8 3.9 15.2l8.8 30.7zM120.7 35.8c-4.7-5-12.7-5-17.4 0l-68 72c-7.2 7.6-1.9 20.2 8.7 20.2h44v340c0 6.6 5.4 12 12 12h24c6.6 0 12-5.4 12-12V128h44c10.6 0 15.9-12.7 8.7-20.2zm279.1 397.6h-64.6c-1.7 0-3.2 0-4.7.1 2.3-2.7 5-6.1 7.9-10.2l69.8-99.1c1.4-2 2.2-4.4 2.2-6.9V300c0-6.6-5.4-12-12-12h-123c-6.6 0-12 5.4-12 12v22.6c0 6.6 5.4 12 12 12h59.7c1.7 0 3.2 0 4.7-.1-2.3 2.7-5 6.1-7.9 10.2l-69.6 98.5c-1.4 2-2.2 4.4-2.2 6.9V468c0 6.6 5.4 12 12 12h127.6c6.6 0 12-5.4 12-12v-22.6c.1-6.6-5.3-12-11.9-12z"/></svg>